<svg width="27" height="24" viewBox="0 0 27 24" fill="none" xmlns="http://www.w3.org/2000/svg">
<path fill-rule="evenodd" clip-rule="evenodd" d="M12.2149 4.25124L12.0602 4.45448L12.6677 5.23993L12.7308 5.16635C12.7656 5.13154 12.9135 5.06193 13.0527 5.04453L13.0974 5.03965C13.5068 4.99488 14.2376 4.91496 15.6717 4.94012L15.6742 4.94016L15.6935 9.15179L16.5681 10.2826L17.7776 10.7176C17.9603 10.7872 18.0908 10.9526 18.1169 11.1527L18.2126 12.0315C18.23 12.1794 18.1778 12.3273 18.0821 12.4404C17.9777 12.5536 17.8385 12.6145 17.6905 12.6145H15.7093L15.748 21.0601L15.7239 21.0719C14.9582 20.6891 12.1652 19.2273 10.0595 17.0346C7.73635 14.607 7.60583 12.1359 7.60583 12.0315L7.62875 8.54841L6.58398 7.90377L6.57042 12.0402V12.0489C6.57042 12.1621 6.64873 14.9812 9.31126 17.7569C11.7128 20.2541 14.8452 21.8116 15.4542 22.0987C15.5412 22.1422 15.6282 22.1596 15.724 22.1596C15.8197 22.1596 15.9154 22.1422 15.9937 22.1161C16.2982 21.9682 17.4033 21.4287 18.7084 20.6108C20.4399 19.5232 21.7799 18.4181 22.6935 17.3218C24.9471 14.6158 25.0167 12.4492 25.0167 12.2317L25.1994 6.8805C25.2168 6.32363 24.8166 5.85377 24.2684 5.77546L20.4748 5.236C20.4138 5.2273 20.3529 5.19249 20.3181 5.14029L20.0049 4.69653C19.7787 4.38329 19.4306 4.17446 19.0391 4.12226C18.4474 4.05265 17.2292 3.92213 15.6805 3.89603C14.1646 3.87063 13.3576 3.96061 12.9545 4.00555L12.9222 4.00914C12.7195 4.03299 12.4473 4.10996 12.2149 4.25124ZM13.1905 2.71786C13.9674 2.63244 14.8905 2.62884 15.7414 2.65184C17.0292 2.68664 18.9347 2.90417 19.4655 2.98248C20.5531 3.1565 20.9012 3.89609 20.9795 4.11362C20.9882 4.14843 21.023 4.17453 21.0665 4.18323L25.1212 4.71399C26.0957 4.86191 26.5308 5.95825 26.5395 6.25409C26.5482 6.49772 26.4438 11.962 26.3742 12.397C26.2611 13.3107 25.9913 15.1901 24.5992 17.026C22.5892 19.6886 19.9006 22.0639 15.8459 23.7085C15.785 23.7259 15.7153 23.7259 15.6544 23.6998C12.0261 22.0465 9.62459 20.5065 7.22309 17.3393C5.30886 14.8183 5.2327 12.6079 5.21411 12.0681L5.21314 12.0403C5.20065 11.6905 5.233 8.89198 5.25224 7.34107L2.55923 7.00233L0.00111417 5.31432V4.94888C-0.00758669 4.89667 0.0359186 4.85316 0.0881252 4.85316L2.11137 4.99247C2.0785 4.90595 2.06475 4.81145 2.07197 4.71396C2.08937 4.47903 2.23729 4.2789 2.45482 4.19189L3.08129 3.93956C3.1596 3.91346 3.23791 3.89606 3.31622 3.89606C3.42934 3.89606 3.53375 3.93086 3.62946 3.98307L4.24443 4.34669L5.23913 3.00851C5.26523 2.9737 5.31744 2.965 5.36094 2.9911L6.57039 3.7829L5.96132 4.81833C5.9376 4.85154 5.9475 4.88733 5.97128 4.90738C6.10619 4.79661 6.26678 4.69885 6.45791 4.62392L7.09246 4.17445L7.505 4.39592C8.01728 4.31985 8.5852 4.26262 9.10348 4.22057L7.22307 3.26956L5.63947 1.10299C5.61337 1.06819 5.62207 1.01598 5.65687 0.989878L5.83959 0.746247C5.8657 0.720144 5.9005 0.711443 5.93531 0.728845L7.29549 1.08035C7.25508 0.957413 7.25628 0.823867 7.30146 0.693987C7.37107 0.493862 7.53639 0.345943 7.73651 0.293737L8.25858 0.15452C8.31078 0.145818 8.36299 0.137118 8.4152 0.137118C8.60662 0.137118 8.78064 0.224128 8.90246 0.372047L9.18094 0.732083L11.4171 0.00666856C11.4606 -0.0107336 11.5042 0.00666856 11.5303 0.050174L12.3047 1.48585L11.5999 1.92091C11.5303 1.96441 11.5651 2.06012 11.6434 2.05142L12.6353 1.96441L13.1905 2.71786ZM11.1566 6.23281L10.4318 5.27572L7.73393 5.64186L7.56599 6.31067L8.12918 6.64368L11.1566 6.23281ZM8.4152 0.659182C8.4413 0.659182 8.4761 0.676585 8.49351 0.693987L16.2549 10.7176L17.6035 11.2049L17.6993 12.0837H15.6806L14.358 10.7611L15.1237 10.6045L7.81482 0.946318C7.77132 0.894112 7.79742 0.807101 7.86703 0.789699L8.38909 0.650481C8.39779 0.659182 8.4065 0.659182 8.4152 0.659182ZM3.36843 4.43552C3.35103 4.42682 3.33363 4.41812 3.31622 4.41812C3.29882 4.41812 3.29012 4.41812 3.28142 4.42682L2.65494 4.67915C2.57663 4.71396 2.56793 4.80967 2.63754 4.85317L9.93775 9.35163L9.16335 9.80409C9.13725 9.83889 9.13725 9.8824 9.18075 9.8911L11.9738 10.7699L13.1484 10.5785L12.3131 8.82957C12.3044 8.81217 12.2783 8.79476 12.2522 8.79476L10.8862 8.89918L3.36843 4.43552Z" fill="#1C1C1C"/>
</svg>
