<svg width="24" height="24" viewBox="0 0 24 24" fill="none" xmlns="http://www.w3.org/2000/svg">
<path d="M20.9932 3.15835C20.99 3.13065 20.9821 3.11403 20.9663 3.09107C20.9132 3.01192 20.8016 3.04833 20.4977 3.04517C20.2357 3.04279 16.2733 3.03962 16.0121 3.03962C15.7508 3.03962 15.6377 2.90823 15.6377 2.90823L11.7607 0.118062C11.7607 0.118062 11.6879 0.0507812 11.6087 0.0507812C11.5296 0.0507812 11.4568 0.118062 11.4568 0.118062L7.5806 2.90823C7.5806 2.90823 7.4682 3.03962 7.2062 3.03962C6.9442 3.03962 2.98256 3.042 2.72057 3.04517C2.41662 3.04833 2.30501 3.01192 2.25198 3.09107C2.21319 3.14886 2.22348 3.24305 2.22506 3.48051C2.22823 3.82166 2.55513 13.5259 2.66278 16.7277C2.67861 17.201 2.69049 17.5548 2.69682 17.7472C2.69682 17.7543 2.69682 17.7677 2.6984 17.7852C2.70078 17.8675 2.70236 17.911 2.70236 17.911C2.70236 17.911 2.76093 18.154 2.80922 18.3804C2.86858 18.6574 2.90816 18.7564 2.90816 18.7564L11.0697 22.7133C11.0697 22.7133 11.4797 22.9713 11.6135 22.9713C11.7338 22.9713 12.1968 22.6919 12.1968 22.6919L20.2365 18.8363C20.2365 18.8363 20.2974 18.6954 20.3813 18.4793C20.542 18.0638 20.5396 17.8659 20.5396 17.8659C20.5396 17.8659 20.994 3.90002 20.9972 3.49159C20.9987 3.31825 21.0043 3.22168 20.9916 3.15915L20.9932 3.15835ZM4.45957 16.8638L4.37884 14.6523L4.05747 5.25909L6.98616 5.24485H7.00278C7.11359 5.24485 7.74128 5.24326 7.83468 5.20289C7.90751 5.17123 8.52886 4.80475 8.52886 4.80475L11.0705 2.92327C11.0705 2.92327 11.5699 2.51325 11.6143 2.51325C11.6665 2.51325 12.1984 2.96285 12.1984 2.96285L14.6831 4.76517C14.6831 4.76517 15.2229 5.17519 15.3036 5.20923C15.3749 5.2393 15.7445 5.24089 15.8237 5.24089C15.8332 5.24089 15.8387 5.24089 15.8387 5.24089L19.1592 5.29867L18.7642 16.8535C18.7642 16.8535 18.7595 16.9849 18.7334 17.0269C18.7009 17.0767 18.6423 17.1068 18.6423 17.1068L11.7354 20.3798C11.7354 20.3798 11.6657 20.4257 11.6103 20.4257C11.5549 20.4257 11.4853 20.3798 11.4853 20.3798L4.5783 17.1068C4.5783 17.1068 4.51973 17.0775 4.48807 17.0285C4.46591 16.9802 4.46115 16.8646 4.46115 16.8646L4.45957 16.8638ZM19.1758 4.819L19.1679 5.06121L15.8435 5.00343H15.8411H15.8387H15.8245C15.61 5.00343 15.4493 4.99551 15.3923 4.9868C15.3123 4.93694 15.0464 4.74222 14.8279 4.576L14.8255 4.57441L14.8232 4.57283L12.3457 2.77604C11.7536 2.27579 11.7045 2.27579 11.6151 2.27579C11.5256 2.27579 11.486 2.27579 10.9248 2.73647L8.39826 4.60687C8.12597 4.76755 7.82123 4.94406 7.75078 4.98047C7.67717 4.99393 7.39934 5.00818 7.00357 5.00818H6.98616L4.05114 5.02242L4.04402 4.81979C4.04402 4.81979 4.03452 4.6876 4.06776 4.65436C4.101 4.62111 4.21341 4.63061 4.21341 4.63061L7.73812 4.557L11.486 1.83253C11.486 1.83253 11.5415 1.78504 11.6103 1.78504C11.6792 1.78504 11.7354 1.83253 11.7354 1.83253L15.4833 4.557L19.008 4.63061C19.008 4.63061 19.1204 4.62111 19.1537 4.65436C19.1869 4.6876 19.1774 4.81979 19.1774 4.81979L19.1758 4.819ZM20.1613 18.3923C20.117 18.5055 20.0798 18.5989 20.0544 18.6598L12.0963 22.4766L12.086 22.4814L12.0765 22.4869C11.8961 22.5953 11.6918 22.7014 11.6127 22.7283C11.5383 22.7046 11.3554 22.6088 11.1979 22.5098L11.1868 22.5027L11.175 22.4972L3.10604 18.5854C3.091 18.5308 3.06963 18.4477 3.04351 18.3289C3.02452 18.2419 3.00473 18.1532 2.98731 18.0764L11.4045 22.0927C11.4045 22.0927 11.528 22.1719 11.6103 22.1719C11.6926 22.1719 11.8161 22.0927 11.8161 22.0927L20.2689 18.059C20.2484 18.1429 20.2151 18.2522 20.1613 18.3915V18.3923Z" fill="#231F20"/>
<path d="M6.39022 10.9545C6.39892 11.0392 6.47174 11.1089 6.50895 11.1564C6.51607 11.1682 6.5224 11.1809 6.53032 11.192C6.62451 11.321 6.73295 11.4168 6.83744 11.4841C6.6348 11.5996 6.49945 11.7342 6.48362 11.8901C6.48283 11.898 6.48283 11.9115 6.48283 11.9273C6.47729 12.217 6.71316 14.3447 6.86989 15.3863C6.89363 15.5431 7.15642 15.8217 7.30998 15.9317C7.33294 15.9697 7.48887 15.9863 7.65035 15.9863C7.82448 15.9863 8.00575 15.9665 8.03028 15.9317C8.07777 15.8652 8.14901 15.8122 8.16247 15.7457C8.17592 15.68 7.9907 15.5082 8.13635 15.4291C8.42447 15.2716 9.50966 14.9629 11.6492 14.9605C13.7879 14.9629 14.7948 15.2716 15.0829 15.4291C15.2277 15.5082 15.0433 15.68 15.0568 15.7457C15.0702 15.8114 15.1414 15.8644 15.1889 15.9317C15.2135 15.9665 15.3939 15.9863 15.5689 15.9863C15.7304 15.9863 15.8863 15.9697 15.9092 15.9317C16.0628 15.8217 16.3264 15.3856 16.3501 15.228C16.5068 14.1856 16.7427 12.2067 16.7372 11.9265C16.7372 11.9115 16.7372 11.898 16.7364 11.8901C16.7214 11.7484 16.5749 11.6178 16.362 11.5023C16.4633 11.439 16.5741 11.3416 16.6889 11.1912C16.6984 11.1785 16.7071 11.1643 16.7158 11.1493C16.7546 11.1018 16.8219 11.0345 16.8298 10.9537C16.9097 10.1472 17.0791 7.64908 17.0783 7.29051C17.0783 7.26043 17.0783 7.24064 17.0768 7.23273C17.068 7.1884 17.0142 7.13299 16.9477 7.08075C16.8369 6.98023 16.6889 6.88683 16.6477 6.88683C16.643 6.88683 16.639 6.88841 16.6375 6.89157C16.6375 6.89157 15.6124 6.9731 15.5594 6.99922C15.5063 7.02534 15.375 7.18365 15.3615 7.23668C15.3496 7.28497 15.0583 8.49839 14.9839 8.89891C14.8494 8.86408 14.7512 8.83876 14.7156 8.82926C14.6388 8.80868 14.6333 8.77147 14.5834 8.72398C14.5343 8.6757 14.4496 8.44694 14.4496 8.44694C14.4496 8.44694 13.9272 7.10054 13.6795 6.45465C13.59 6.22114 13.5861 6.18236 13.5315 6.14753C13.4349 6.08658 13.3027 6.06363 12.7106 6.0193C12.2674 5.98606 11.612 6.00584 11.612 6.00584C11.612 6.00584 11.0357 5.98606 10.5925 6.0193C10.0004 6.06363 9.78908 6.08737 9.69251 6.14753C9.6371 6.18236 9.63394 6.22035 9.54449 6.45465C9.29674 7.10054 8.77432 8.44694 8.77432 8.44694C8.77432 8.44694 8.69042 8.6757 8.64055 8.72398C8.59148 8.77227 8.58515 8.80868 8.50837 8.82926C8.47592 8.83796 8.37302 8.85934 8.23766 8.88862C8.16009 8.4794 7.87356 7.28418 7.86168 7.23589C7.84823 7.18286 7.63768 7.02455 7.58465 6.99843C7.53161 6.97231 6.58573 6.88762 6.58573 6.88762C6.58573 6.88762 6.53586 6.91532 6.47095 6.95648C6.34114 7.02297 6.16384 7.14724 6.14643 7.23194C6.14484 7.23985 6.14405 7.25964 6.14484 7.28972C6.14326 7.64828 6.31265 10.1472 6.39339 10.9529L6.39022 10.9545ZM8.54874 10.4218C9.73842 10.2018 10.5102 10.1139 11.6088 10.1139C12.7075 10.1139 13.6803 10.2501 14.5644 10.4614C15.1003 10.5896 15.447 10.7147 15.686 10.8176C15.9393 10.9268 15.9781 10.8627 15.9623 11.1493C15.9559 11.2601 15.9338 11.2791 15.9061 11.3353C15.4715 11.173 14.7116 10.9799 14.3895 10.934C13.556 10.8152 12.8056 10.7099 11.6088 10.7099C10.412 10.7099 9.65926 10.8176 8.82815 10.934C8.41338 10.9925 7.67092 11.1738 7.26803 11.3234C7.24429 11.2529 7.22687 11.2173 7.20708 11.0915C7.17542 10.8841 7.27674 10.892 7.54665 10.7733C7.84981 10.6403 8.09915 10.5643 8.54874 10.421V10.4218ZM13.0043 12.5978C13.0043 12.6286 12.937 12.6904 12.937 12.6904L11.7125 13.9149C11.7125 13.9149 11.6381 13.9798 11.6088 13.9798C11.5795 13.9798 11.5051 13.9149 11.5051 13.9149L10.2854 12.6951C10.2854 12.6951 10.2236 12.631 10.2236 12.5978C10.2236 12.5645 10.2719 12.5139 10.2719 12.5139L11.5162 11.2696C11.5162 11.2696 11.5787 11.2142 11.6088 11.2142C11.6389 11.2142 11.6967 11.2648 11.6967 11.2648L12.9362 12.5044C12.9362 12.5044 13.0043 12.5669 13.0043 12.5978V12.5978ZM15.7747 15.7346C15.7438 15.7402 15.6757 15.7481 15.5673 15.7481C15.4589 15.7481 15.3773 15.7402 15.333 15.733C15.329 15.7283 15.3243 15.7235 15.3203 15.7188C15.462 15.4085 15.2823 15.2676 15.1953 15.2201C15.0441 15.1378 14.1607 14.7254 11.6476 14.723C9.50096 14.7254 8.35877 15.0365 8.02158 15.2201C7.93451 15.2676 7.75562 15.4085 7.89651 15.7188C7.89256 15.7235 7.8878 15.7283 7.88385 15.733C7.83952 15.7402 7.75799 15.7481 7.64955 15.7481C7.54111 15.7481 7.47304 15.7402 7.44217 15.7346C7.38756 15.695 7.3274 15.6381 7.27278 15.5795C7.35035 15.2747 7.72158 14.9091 8.68963 14.742C9.60465 14.5845 10.5482 14.4785 11.6476 14.4785C12.7471 14.4785 13.613 14.5845 14.528 14.742C15.485 14.9067 15.8427 15.2407 15.9274 15.5454C15.8712 15.6301 15.8135 15.7038 15.7747 15.7346V15.7346ZM15.5847 7.31426C15.6005 7.28972 15.6346 7.24777 15.6607 7.22085C15.7953 7.20186 16.1894 7.16624 16.5646 7.13537C16.5425 7.25252 16.5171 7.39024 16.4958 7.48127C16.385 7.95619 16.2195 8.47465 16.1309 8.68441C16.0422 8.89416 15.9789 9.09363 15.9267 9.11342C15.8823 9.13004 15.6235 9.06751 15.3465 8.99469C15.2998 8.98281 15.2554 8.97094 15.2119 8.95986C15.2736 8.61475 15.5428 7.48918 15.5847 7.31505V7.31426ZM7.63926 7.33879C7.69467 7.56913 7.93767 8.59496 8.00258 8.94245C7.93371 8.95907 7.86248 8.97648 7.79203 8.99469C7.51499 9.06751 7.33531 9.13004 7.29099 9.11342C7.23795 9.09363 7.17542 8.89416 7.08677 8.68441C6.99812 8.47465 6.83269 7.95619 6.72187 7.48127C6.7005 7.38945 6.67517 7.25093 6.65221 7.13378C7.00761 7.16624 7.38122 7.20423 7.49045 7.22244C7.53082 7.24935 7.60127 7.30396 7.63847 7.33879H7.63926Z" fill="#231F20"/>
<path d="M12.2936 12.4943L11.7094 11.9101C11.7094 11.9101 11.6437 11.8516 11.6097 11.8516C11.5757 11.8516 11.5076 11.9125 11.5076 11.9125L10.9139 12.5062C10.9139 12.5062 10.8633 12.5616 10.8633 12.5972C10.8633 12.6328 10.9108 12.6851 10.9108 12.6851L11.4973 13.2716C11.4973 13.2716 11.5583 13.3436 11.6176 13.3436C11.6596 13.3436 11.7205 13.274 11.7205 13.274L12.2991 12.6953C12.2991 12.6953 12.3664 12.6415 12.3664 12.598C12.3664 12.5544 12.2928 12.4951 12.2928 12.4951L12.2936 12.4943Z" fill="#231F20"/>
</svg>
