<svg width="28" height="27" viewBox="0 0 28 27" fill="none" xmlns="http://www.w3.org/2000/svg">
<path fill-rule="evenodd" clip-rule="evenodd" d="M18.9373 1.10792C20.5448 1.7973 21.9964 2.77391 23.2513 4.01315C25.7937 6.51624 27.2536 9.84822 27.27 13.1474C27.27 15.355 26.6057 17.456 25.3591 19.2286C24.3995 20.591 23.0954 21.7564 21.5371 22.6509V22.8971C21.5371 24.6123 20.1347 26.0075 18.4206 26.0075H8.84942C7.12711 26.0075 5.73285 24.6123 5.73285 22.8971V22.6509C4.17457 21.7481 2.87053 20.5828 1.91095 19.2286C0.65612 17.456 0 15.355 0 13.1474C0 9.84822 1.45987 6.51624 4.00233 4.00494C5.26537 2.76571 6.71703 1.78909 8.31633 1.09972C10.014 0.369308 11.802 0 13.6309 0C15.4598 0 17.2478 0.369308 18.9373 1.10792ZM4.02717 18.998C4.15796 19.1546 4.30159 19.2983 4.44522 19.442C4.38433 19.3811 4.32469 19.3189 4.26581 19.256C5.16374 20.1912 6.27341 20.9655 7.53729 21.5511V22.897C7.53729 23.1237 7.59465 23.3366 7.69595 23.5221C7.79819 23.7093 7.9452 23.8686 8.12314 23.9858C8.33054 24.1224 8.57997 24.2019 8.84953 24.2019H18.4207C18.4261 24.2019 18.4315 24.2018 18.4369 24.2018C19.1513 24.1931 19.7329 23.6137 19.7329 22.897V21.5511C23.1611 19.9507 25.4658 16.9716 25.4658 13.1472C25.4494 7.33679 20.1594 1.80538 13.631 1.80538C7.09441 1.80538 1.80444 7.33679 1.80444 13.1472C1.80444 15.4377 2.62816 17.4279 4.02717 18.998ZM6.90567 21.2393C7.1107 21.346 7.32394 21.4527 7.53718 21.5594C7.32394 21.4609 7.1107 21.3542 6.90567 21.2393ZM16.0422 10.3815L14.525 11.8998C14.2051 12.2199 14.2051 12.7369 14.5168 13.057C14.6808 13.2129 14.8858 13.295 15.0991 13.295C15.3123 13.295 15.5173 13.2129 15.6814 13.057L17.1987 11.5387C17.5185 11.2186 17.5185 10.7016 17.1987 10.3815C16.8788 10.0615 16.3621 10.0615 16.0422 10.3815ZM11.3182 10.3815C10.9983 10.0615 10.4816 10.0615 10.1618 10.3815C9.84191 10.7016 9.84191 11.2186 10.1536 11.5387L11.6708 13.057C11.8349 13.2129 12.0399 13.295 12.2532 13.295C12.4664 13.295 12.6714 13.2129 12.8355 13.057C13.1553 12.7369 13.1553 12.2199 12.8355 11.8998L11.3182 10.3815ZM4.97022 15.5765C4.97022 17.5461 6.5039 19.1382 8.40665 19.1382C10.3094 19.1382 11.8431 17.5461 11.8431 15.5765C11.8431 13.6068 10.3012 12.0147 8.40665 12.0147C6.5121 12.0147 4.97022 13.6068 4.97022 15.5765ZM13.6884 16.7829C13.6884 16.7747 11.8431 19.7373 11.8431 19.7373C11.8431 19.7455 15.4107 19.7455 15.4025 19.7373L13.6884 16.7829ZM15.6814 15.5765C15.6814 17.5461 17.2151 19.1382 19.1178 19.1382C21.0124 19.1382 22.5542 17.5461 22.5542 15.5765C22.5542 13.6068 21.0124 12.0147 19.1178 12.0147C17.2233 12.0147 15.6814 13.6068 15.6814 15.5765Z" fill="#1C1C1C"/>
</svg>
