<?xml version="1.0" standalone="no"?>
<!DOCTYPE svg PUBLIC "-//W3C//DTD SVG 20010904//EN"
 "http://www.w3.org/TR/2001/REC-SVG-20010904/DTD/svg10.dtd">
<svg version="1.0" xmlns="http://www.w3.org/2000/svg"
 width="240.000000pt" height="240.000000pt" viewBox="0 0 240.000000 240.000000"
 preserveAspectRatio="xMidYMid meet">
<metadata>
Created by potrace 1.10, written by Peter Selinger 2001-2011
</metadata>
<g transform="translate(0.000000,240.000000) scale(0.100000,-0.100000)"
fill="#000000" stroke="none">
<path d="M1755 1926 c-88 -29 -239 -76 -335 -106 -96 -29 -177 -57 -180 -60
-3 -4 -12 -7 -20 -7 -13 0 -140 -38 -390 -118 -41 -13 -142 -46 -225 -72 -82
-26 -160 -57 -174 -69 -34 -29 -23 -61 36 -105 26 -19 78 -57 115 -84 l68 -50
0 -411 0 -411 23 -21 c29 -28 43 -28 136 3 87 28 385 122 641 201 96 30 184
59 195 63 11 5 31 12 45 15 41 9 90 44 100 72 6 15 10 187 10 418 l0 392 76
130 c42 71 84 140 94 154 24 35 34 70 20 70 -6 0 -8 5 -5 10 11 17 -15 40 -44
39 -14 0 -98 -24 -186 -53z m215 13 c0 -5 -18 -37 -40 -69 -22 -32 -40 -61
-40 -64 0 -3 -20 -36 -44 -73 -95 -147 -86 -90 -86 -563 0 -362 -2 -420 -15
-420 -8 0 -34 -6 -57 -14 -24 -8 -90 -28 -148 -46 -58 -18 -114 -36 -125 -40
-20 -8 -227 -73 -295 -93 -19 -5 -44 -13 -55 -17 -11 -4 -40 -13 -65 -20 -25
-7 -54 -16 -65 -20 -11 -4 -54 -18 -95 -31 -41 -12 -79 -26 -85 -29 -5 -4 -23
-10 -40 -13 l-30 -5 0 434 0 434 -127 83 c-70 45 -127 88 -128 95 0 7 12 12
30 12 25 0 216 56 275 81 11 4 54 17 95 29 41 12 84 25 95 30 19 9 144 46 193
57 12 3 25 9 28 14 3 5 18 9 33 9 15 0 31 4 37 8 5 5 29 14 54 21 25 7 53 17
62 22 10 5 25 9 33 9 8 0 23 4 33 9 14 7 114 38 147 46 5 1 17 4 25 7 8 3 62
20 120 38 58 18 113 36 122 41 10 5 26 9 35 9 10 1 34 9 53 19 40 22 70 26 70
10z"/>
<path d="M1765 1828 c-64 -26 -82 -33 -125 -45 -113 -34 -217 -67 -232 -74
-10 -5 -27 -9 -37 -9 -11 0 -23 -4 -26 -10 -3 -5 -17 -10 -30 -10 -13 0 -27
-4 -30 -10 -3 -5 -19 -10 -34 -10 -15 0 -31 -4 -37 -8 -5 -5 -29 -14 -54 -21
-25 -7 -54 -17 -65 -22 -11 -4 -31 -11 -45 -14 -57 -14 -226 -67 -242 -76 -10
-5 -29 -9 -43 -9 -14 0 -25 -4 -25 -10 0 -5 -13 -10 -30 -10 -16 0 -30 -4 -30
-9 0 -5 -25 -13 -55 -16 -31 -4 -55 -12 -54 -19 0 -6 41 -37 92 -70 l92 -58
-3 -232 c-1 -127 -3 -309 -5 -404 -2 -161 -1 -172 16 -172 10 0 85 22 165 49
242 80 312 101 332 101 10 0 22 4 25 10 3 6 17 10 30 10 13 0 27 5 30 10 3 6
15 10 26 10 10 0 27 4 37 9 9 5 37 15 62 21 25 7 54 16 65 20 11 5 47 16 80
25 33 10 66 19 73 21 9 3 12 95 12 416 0 394 1 414 20 438 11 14 20 29 20 33
0 5 23 42 50 83 28 41 50 77 50 79 0 9 -24 3 -75 -17z m-37 -75 c-2 -5 -18
-36 -36 -70 l-32 -62 0 -384 c0 -445 12 -403 -121 -442 -46 -14 -91 -28 -99
-32 -8 -3 -42 -14 -75 -24 -165 -48 -241 -72 -365 -114 -74 -25 -151 -47 -170
-48 l-35 -2 -5 378 -5 377 -54 49 c-65 59 -74 51 134 116 83 25 254 80 380
120 481 153 492 157 483 138z"/>
<path d="M1505 1655 c-5 -2 -50 -16 -100 -30 -49 -15 -164 -52 -255 -81 -91
-30 -169 -54 -172 -54 -4 0 -33 -9 -64 -21 -85 -32 -84 -27 -84 -422 0 -368 3
-389 58 -400 28 -6 254 59 260 75 2 4 16 8 31 8 49 0 367 108 400 136 l31 26
0 363 c0 362 0 364 -22 385 -19 18 -55 24 -83 15z m65 -400 c0 -364 -1 -375
-19 -375 -18 0 -161 -42 -206 -60 -11 -5 -38 -14 -60 -21 -22 -6 -48 -15 -57
-20 -10 -5 -23 -9 -30 -9 -12 0 -156 -43 -203 -60 -11 -4 -38 -13 -60 -20 -22
-7 -44 -14 -50 -17 -7 -2 -11 127 -12 372 l-1 375 23 0 c13 0 27 5 30 10 3 6
14 10 24 10 10 0 79 20 154 45 76 25 144 45 152 45 8 0 23 4 33 10 17 9 96 35
182 60 25 8 49 17 55 22 5 4 17 8 27 8 17 0 18 -21 18 -375z"/>
<path d="M1435 1431 c-14 -13 -128 -51 -153 -51 -11 0 -24 -4 -27 -10 -3 -5
-17 -10 -31 -10 -13 0 -24 -4 -24 -9 0 -5 -15 -11 -32 -14 -18 -3 -54 -11 -80
-18 l-48 -12 0 -123 0 -123 27 14 c15 8 30 12 34 9 4 -2 5 5 2 16 -3 11 -9 23
-14 26 -5 3 -9 34 -9 70 0 63 1 65 33 79 54 24 237 78 243 72 3 -3 -6 -27 -20
-53 -14 -27 -26 -52 -26 -56 0 -3 11 -20 25 -37 23 -27 26 -37 23 -98 l-3 -68
-100 -33 c-55 -18 -116 -36 -135 -41 l-35 -8 27 54 c32 64 28 97 -6 55 -28
-33 -126 -179 -126 -187 0 -8 28 -6 48 4 32 16 67 29 142 51 41 12 93 28 115
35 22 7 58 18 80 24 l40 13 1 119 c0 65 -3 119 -7 119 -3 0 -18 -9 -33 -21
l-26 -20 0 24 c0 14 4 27 8 29 9 3 122 172 122 182 0 9 -25 7 -35 -3z"/>
</g>
</svg>
